<svg width="20" height="20" viewBox="0 0 20 20" fill="none" xmlns="http://www.w3.org/2000/svg">
<g clip-path="url(#clip0_1143_543)">
<path d="M16.1567 3H3.84331C2.2713 3 1 4.35143 1 6.01659V13.1679C1 14.8331 2.2713 16.1805 3.84331 16.1805H8.08733L9.53373 18.6702C9.53373 18.6702 9.54895 18.7024 9.5794 18.7426C9.66314 18.8954 9.8192 19 10.0019 19C10.1846 19 10.3369 18.8954 10.4206 18.7466C10.4587 18.7024 10.4701 18.6702 10.4701 18.6702L11.9165 16.1805H16.1567C17.7249 16.1805 19 14.8291 19 13.1679V6.01659C19 4.35143 17.7249 3 16.1567 3Z" fill="#333333"/>
<path d="M4.99721 8.24066C4.99721 8.24066 4.5062 8.24066 4.05705 8.69918V6.85303H2.95703V11.7037H4.06847V11.3256C4.06847 11.3256 4.33111 11.8284 4.9934 11.8284C4.9934 11.8284 6.54637 11.7681 6.54637 10.0144C6.54637 10.0144 6.48928 8.24066 4.9934 8.24066M4.7498 10.7987C4.35775 10.7987 4.04183 10.4649 4.04183 10.0506C4.04183 9.63634 4.35775 9.3025 4.7498 9.3025C5.14185 9.3025 5.45777 9.63634 5.45777 10.0506C5.45777 10.4649 5.14185 10.7987 4.7498 10.7987Z" fill="white"/>
<path d="M6.90234 6.74072V7.86692C6.90234 7.86692 7.40478 7.84278 7.40478 8.83223V11.704H8.46673V8.56677C8.46673 8.56677 8.51241 6.74072 6.90234 6.74072Z" fill="white"/>
<path d="M11.0695 8.25684C11.0695 8.25684 9.24628 8.25684 9.24628 10.0507C9.24628 10.0507 9.18919 11.8245 11.0695 11.8245C11.0695 11.8245 12.9308 11.8245 12.9308 10.0507C12.9308 10.0507 12.9917 8.25684 11.0695 8.25684ZM11.0695 10.7988C10.6775 10.7988 10.3615 10.465 10.3615 10.0507C10.3615 9.63642 10.6775 9.30259 11.0695 9.30259C11.4615 9.30259 11.7775 9.63642 11.7775 10.0507C11.7775 10.465 11.4615 10.7988 11.0695 10.7988Z" fill="white"/>
<path d="M15.97 8.36935V8.69916C15.97 8.69916 15.6541 8.25673 15.0451 8.25673C15.0451 8.25673 13.4883 8.18433 13.4883 10.0385C13.4883 10.0385 13.4731 11.768 15.0032 11.768C15.0032 11.768 15.6274 11.7922 15.97 11.3256V11.5951C15.97 11.5951 16.0499 12.4478 15.2696 12.4478H15.0032V13.4774H15.4333C15.4333 13.4774 17.0434 13.4976 17.0434 11.6594V8.36935H15.97ZM15.3115 10.7987C14.9195 10.7987 14.6035 10.4649 14.6035 10.0506C14.6035 9.63632 14.9195 9.30248 15.3115 9.30248C15.7036 9.30248 16.0195 9.63632 16.0195 10.0506C16.0195 10.4649 15.7036 10.7987 15.3115 10.7987Z" fill="white"/>
</g>
<defs>
<clipPath id="clip0_1143_543">
<rect width="18" height="16" fill="white" transform="translate(1 3)"/>
</clipPath>
</defs>
</svg>
