<svg width="123" height="170" viewBox="0 0 123 178" fill="none" xmlns="http://www.w3.org/2000/svg">
<path d="M55.4421 17.5885H57.0889C57.3634 17.5885 57.6379 17.5885 57.9515 17.5885H119.001V0.0391725H56.8929V0H54.9324V0.0783451C23.0552 0.861796 0 20.6048 0 47.2029V47.7122C0 76.1514 18.3108 89 58.1476 97.6571C94.534 105.335 103.199 114.462 103.199 130.523V131.032C103.199 147.759 88.4565 159.941 65.9503 160.412H3.92094V178H63.4801C63.4801 178 63.7153 178 63.8722 178C98.2588 178 123 158.727 123 129.034V128.525C123 102.084 105.199 87.9815 66.5776 79.5594C28.4661 71.4115 19.5655 62.2452 19.5655 45.9494V45.4401C19.5655 30.0845 33.5633 17.8627 55.5598 17.5493L55.4421 17.5885Z" fill="black"/>
</svg>
