<svg width="301" height="117" viewBox="0 0 301 117" fill="none" xmlns="http://www.w3.org/2000/svg">
<path d="M63.8406 115H0.793762V104.219L12.5125 90.7812C21.0021 81.9792 27.7208 74.4531 32.6688 68.2031C37.6167 61.9531 41.1323 56.25 43.2156 51.0938C45.3511 45.8854 46.4188 40.5208 46.4188 35C46.4188 27.7083 44.3875 21.875 40.325 17.5C36.3146 13.125 31.0802 10.9375 24.6219 10.9375C18.4761 10.9375 13.3979 12.4219 9.38751 15.3906C5.42918 18.3073 2.53855 22.1354 0.715637 26.875V23.8281C1.65314 19.2448 3.5021 15.2083 6.26251 11.7188C9.02293 8.22917 12.6427 5.49479 17.1219 3.51562C21.6531 1.53646 26.9396 0.546875 32.9813 0.546875C38.7625 0.546875 43.8927 1.77083 48.3719 4.21875C52.8511 6.61458 56.3667 10 58.9188 14.375C61.4708 18.6979 62.7469 23.8021 62.7469 29.6875C62.7469 35.625 61.4448 41.3281 58.8406 46.7969C56.2886 52.2656 52.174 58.099 46.4969 64.2969C40.8719 70.4948 33.4761 77.6823 24.3094 85.8594L5.40314 103.203L5.32501 101.797H64.5438L63.8406 115ZM113.3 116.641C106.217 116.641 99.5761 114.479 93.3781 110.156C87.2323 105.833 82.2583 99.375 78.4563 90.7812C74.6542 82.1875 72.7531 71.4844 72.7531 58.6719C72.7531 45.4427 74.6281 34.5573 78.3781 26.0156C82.1802 17.4219 87.1542 11.0417 93.3 6.875C99.4979 2.65625 106.191 0.546875 113.378 0.546875C120.514 0.546875 127.154 2.70833 133.3 7.03125C139.446 11.3542 144.394 17.8125 148.144 26.4062C151.946 35 153.847 45.7031 153.847 58.5156C153.847 71.6927 151.972 82.5781 148.222 91.1719C144.472 99.7656 139.524 106.172 133.378 110.391C127.232 114.557 120.54 116.641 113.3 116.641ZM113.691 112.891C118.534 112.891 122.597 111.094 125.878 107.5C129.211 103.854 131.711 98.2292 133.378 90.625C135.097 83.0208 135.956 73.2552 135.956 61.3281C135.956 49.1406 135.071 38.8021 133.3 30.3125C131.529 21.8229 128.925 15.3646 125.488 10.9375C122.05 6.51042 117.857 4.29688 112.909 4.29688C108.118 4.29688 104.055 6.11979 100.722 9.76562C97.4406 13.3594 94.9406 18.9583 93.2219 26.5625C91.5031 34.1667 90.6438 43.9323 90.6438 55.8594C90.6438 67.9948 91.5292 78.3333 93.3 86.875C95.1229 95.3646 97.7531 101.823 101.191 106.25C104.628 110.677 108.795 112.891 113.691 112.891ZM223.228 115H160.181V104.219L171.9 90.7812C180.39 81.9792 187.108 74.4531 192.056 68.2031C197.004 61.9531 200.52 56.25 202.603 51.0938C204.739 45.8854 205.806 40.5208 205.806 35C205.806 27.7083 203.775 21.875 199.713 17.5C195.702 13.125 190.468 10.9375 184.009 10.9375C177.864 10.9375 172.785 12.4219 168.775 15.3906C164.817 18.3073 161.926 22.1354 160.103 26.875V23.8281C161.041 19.2448 162.89 15.2083 165.65 11.7188C168.41 8.22917 172.03 5.49479 176.509 3.51562C181.041 1.53646 186.327 0.546875 192.369 0.546875C198.15 0.546875 203.28 1.77083 207.759 4.21875C212.239 6.61458 215.754 10 218.306 14.375C220.858 18.6979 222.134 23.8021 222.134 29.6875C222.134 35.625 220.832 41.3281 218.228 46.7969C215.676 52.2656 211.561 58.099 205.884 64.2969C200.259 70.4948 192.864 77.6823 183.697 85.8594L164.791 103.203L164.713 101.797H223.931L223.228 115ZM268.625 115V86.25H218.078V80.2344L272.766 1.95312H282.688V74.2969H300.031L299.484 86.25H282.688V115H268.625ZM268.703 74.375V12.0312H269.641L227.922 76.25V74.375H268.703Z" fill="#333333"/>
</svg>
