<svg width="297" height="116" viewBox="0 0 297 116" fill="none" xmlns="http://www.w3.org/2000/svg">
<path d="M31.2656 1.95312L30.9531 100.312C30.9531 103.021 31.3177 105.156 32.0469 106.719C32.8281 108.281 34.2865 109.479 36.4219 110.312C38.6094 111.094 41.7344 111.771 45.7969 112.344V115H1.34375V112.344C5.35417 111.771 8.40104 111.094 10.4844 110.312C12.5677 109.479 13.974 108.281 14.7031 106.719C15.4844 105.156 15.875 103.021 15.875 100.312V13.8281L0.484375 18.75V16.4062C4.70312 14.1146 8.66146 11.7708 12.3594 9.375C16.0573 6.97917 19.4948 4.50521 22.6719 1.95312H31.2656ZM127.912 47.6562C127.912 57.4479 126.168 66.5104 122.678 74.8438C119.241 83.1771 114.345 90.4167 107.991 96.5625C101.689 102.708 94.1885 107.474 85.4906 110.859C76.7927 114.193 67.2354 115.807 56.8187 115.703L56.7406 113.125C68.7719 112.031 78.876 108.464 87.0531 102.422C95.2302 96.3802 101.376 88.3073 105.491 78.2031C109.657 68.0469 111.741 56.3281 111.741 43.0469V38.2812H111.194C111.194 31.1458 110.282 25.0521 108.459 20C106.689 14.8958 104.136 11.0156 100.803 8.35938C97.5219 5.65104 93.6417 4.29688 89.1625 4.29688C83.0167 4.29688 78.0427 6.90104 74.2406 12.1094C70.4385 17.3177 68.5375 24.1927 68.5375 32.7344C68.5375 41.6927 70.4385 48.776 74.2406 53.9844C78.0427 59.1927 83.225 61.7969 89.7875 61.7969C96.0375 61.7969 101.168 59.6354 105.178 55.3125C109.189 50.9896 111.194 45.3125 111.194 38.2812H112.834C112.834 44.375 111.636 49.8177 109.241 54.6094C106.845 59.349 103.381 63.099 98.85 65.8594C94.3708 68.5677 88.9542 69.9219 82.6 69.9219C76.5062 69.9219 71.1677 68.5417 66.5844 65.7812C62.001 63.0208 58.4333 59.1667 55.8812 54.2188C53.3292 49.2708 52.0531 43.5677 52.0531 37.1094C52.0531 29.1406 53.85 22.4479 57.4437 17.0312C61.0896 11.6146 65.751 7.52604 71.4281 4.76562C77.1052 1.95312 83.0167 0.546875 89.1625 0.546875C96.8187 0.546875 103.537 2.39583 109.319 6.09375C115.152 9.79167 119.709 15.1562 122.991 22.1875C126.272 29.2188 127.912 37.7083 127.912 47.6562ZM212.294 47.6562C212.294 57.4479 210.549 66.5104 207.059 74.8438C203.622 83.1771 198.726 90.4167 192.372 96.5625C186.07 102.708 178.57 107.474 169.872 110.859C161.174 114.193 151.617 115.807 141.2 115.703L141.122 113.125C153.153 112.031 163.257 108.464 171.434 102.422C179.611 96.3802 185.757 88.3073 189.872 78.2031C194.039 68.0469 196.122 56.3281 196.122 43.0469V38.2812H195.575C195.575 31.1458 194.664 25.0521 192.841 20C191.07 14.8958 188.518 11.0156 185.184 8.35938C181.903 5.65104 178.023 4.29688 173.544 4.29688C167.398 4.29688 162.424 6.90104 158.622 12.1094C154.82 17.3177 152.919 24.1927 152.919 32.7344C152.919 41.6927 154.82 48.776 158.622 53.9844C162.424 59.1927 167.606 61.7969 174.169 61.7969C180.419 61.7969 185.549 59.6354 189.559 55.3125C193.57 50.9896 195.575 45.3125 195.575 38.2812H197.216C197.216 44.375 196.018 49.8177 193.622 54.6094C191.226 59.349 187.762 63.099 183.231 65.8594C178.752 68.5677 173.335 69.9219 166.981 69.9219C160.887 69.9219 155.549 68.5417 150.966 65.7812C146.382 63.0208 142.815 59.1667 140.262 54.2188C137.71 49.2708 136.434 43.5677 136.434 37.1094C136.434 29.1406 138.231 22.4479 141.825 17.0312C145.471 11.6146 150.132 7.52604 155.809 4.76562C161.486 1.95312 167.398 0.546875 173.544 0.546875C181.2 0.546875 187.919 2.39583 193.7 6.09375C199.533 9.79167 204.091 15.1562 207.372 22.1875C210.653 29.2188 212.294 37.7083 212.294 47.6562ZM296.675 47.6562C296.675 57.4479 294.93 66.5104 291.441 74.8438C288.003 83.1771 283.107 90.4167 276.753 96.5625C270.451 102.708 262.951 107.474 254.253 110.859C245.555 114.193 235.998 115.807 225.581 115.703L225.503 113.125C237.534 112.031 247.639 108.464 255.816 102.422C263.993 96.3802 270.139 88.3073 274.253 78.2031C278.42 68.0469 280.503 56.3281 280.503 43.0469V38.2812H279.956C279.956 31.1458 279.045 25.0521 277.222 20C275.451 14.8958 272.899 11.0156 269.566 8.35938C266.284 5.65104 262.404 4.29688 257.925 4.29688C251.779 4.29688 246.805 6.90104 243.003 12.1094C239.201 17.3177 237.3 24.1927 237.3 32.7344C237.3 41.6927 239.201 48.776 243.003 53.9844C246.805 59.1927 251.988 61.7969 258.55 61.7969C264.8 61.7969 269.93 59.6354 273.941 55.3125C277.951 50.9896 279.956 45.3125 279.956 38.2812H281.597C281.597 44.375 280.399 49.8177 278.003 54.6094C275.607 59.349 272.144 63.099 267.613 65.8594C263.133 68.5677 257.717 69.9219 251.363 69.9219C245.269 69.9219 239.93 68.5417 235.347 65.7812C230.764 63.0208 227.196 59.1667 224.644 54.2188C222.092 49.2708 220.816 43.5677 220.816 37.1094C220.816 29.1406 222.613 22.4479 226.206 17.0312C229.852 11.6146 234.514 7.52604 240.191 4.76562C245.868 1.95312 251.779 0.546875 257.925 0.546875C265.581 0.546875 272.3 2.39583 278.081 6.09375C283.915 9.79167 288.472 15.1562 291.753 22.1875C295.034 29.2188 296.675 37.7083 296.675 47.6562Z" fill="#333333"/>
</svg>
